<?xml version="1.0" standalone="no"?><svg xmlns="http://www.w3.org/2000/svg" viewBox="0 0 1440 320"><path fill="#0099ff" fill-opacity="1" d="M0,288L34.3,272C68.6,256,137,224,206,224C274.3,224,343,256,411,261.3C480,267,549,245,617,229.3C685.7,213,754,203,823,176C891.4,149,960,107,1029,122.7C1097.1,139,1166,213,1234,240C1302.9,267,1371,245,1406,234.7L1440,224L1440,0L1405.7,0C1371.4,0,1303,0,1234,0C1165.7,0,1097,0,1029,0C960,0,891,0,823,0C754.3,0,686,0,617,0C548.6,0,480,0,411,0C342.9,0,274,0,206,0C137.1,0,69,0,34,0L0,0Z"></path></svg>